<?xml version="1.0" standalone="no"?>
<!DOCTYPE svg PUBLIC "-//W3C//DTD SVG 20010904//EN"
 "http://www.w3.org/TR/2001/REC-SVG-20010904/DTD/svg10.dtd">
<svg version="1.0" xmlns="http://www.w3.org/2000/svg"
 width="48.000000pt" height="48.000000pt" viewBox="0 0 48.000000 48.000000"
 preserveAspectRatio="xMidYMid meet">
<metadata>
Created by potrace 1.15, written by Peter Selinger 2001-2017
</metadata>
<g transform="translate(0.000000,48.000000) scale(0.100000,-0.100000)"
fill="#000000" stroke="none">
<path d="M235 470 c-33 -4 -72 -12 -86 -18 -44 -18 -161 -143 -140 -150 8 -3
8 -9 0 -24 -6 -12 -9 -47 -7 -79 5 -70 42 -129 107 -171 40 -25 54 -28 128
-28 95 0 143 18 187 71 51 60 58 85 54 179 -3 77 -6 92 -33 130 -32 47 -85 86
-125 93 -14 3 -52 1 -85 -3z m90 -39 c86 -40 126 -112 124 -221 -1 -60 -6 -76
-29 -109 -29 -40 -117 -91 -156 -91 -37 0 -84 12 -79 20 3 4 -6 11 -20 14 -37
9 -96 65 -116 111 -78 172 105 355 276 276z"/>
<path d="M263 393 c37 -2 67 -8 67 -13 0 -6 -6 -10 -14 -10 -8 0 -22 -7 -31
-16 -15 -15 -17 -15 -34 0 -10 9 -26 16 -37 16 -11 0 -25 5 -32 12 -9 9 -12 6
-12 -15 0 -20 5 -27 19 -27 17 0 20 -9 23 -75 2 -41 0 -89 -3 -105 -6 -27 -4
-30 12 -25 21 7 25 -5 7 -23 -17 -17 -64 -16 -50 1 15 18 15 29 0 39 -10 7 -9
8 5 4 13 -4 17 0 17 18 0 43 -10 56 -44 56 -39 0 -52 -9 -65 -43 -8 -21 -7
-36 4 -63 23 -55 100 -79 174 -53 48 17 61 52 61 169 0 93 1 100 20 100 16 0
20 7 20 30 l0 30 -87 -2 c-83 -2 -84 -2 -20 -5z"/>
</g>
</svg>
